{"title":"The Penguins of Madagascar New to the Zoo (2009) DVDRip XviD-SKI","uid":5766812,"size":738217105,"categoryP":"video","categoryS":"movies","magnet":"?xt=urn:btih:1eb9ed4b133168e63f3eddfedf1be432a6b12f37&amp;dn=The+Penguins+of+Madagascar+New+to+the+Zoo+%282009%29+DVDRip+XviD-SKI&amp;tr=udp%3A%2F%2Ftracker.openbittorrent.com%3A80&amp;tr=udp%3A%2F%2Fopen.demonii.com%3A1337&amp;tr=udp%3A%2F%2Ftracker.coppersurfer.tk%3A6969&amp;tr=udp%3A%2F%2Fexodus.desync.com%3A6969","seeders":1,"leechers":1,"uploader":"SkittlesRG","files":2,"time":1281942531,"description":"[img]http://leetleech.org/images/04699679063624403304.jpg[/img]\n\nThe Penguins of Madagascar New to the Zoo (2009) DVDRip XviD-SKITTLES\n\nVideo\nID                               : 0\nFormat                           : MPEG-4 Visual\nFormat profile                   : Advanced Simple@L5\nFormat settings, BVOP            : Yes\nFormat settings, QPel            : No\nFormat settings, GMC             : No warppoints\nFormat settings, Matrix          : Default (H.263)\nMuxing mode                      : Packed bitstream\nCodec ID                         : XVID\nCodec ID/Hint                    : XviD\nDuration                         : 1h 33mn\nBit rate                         : 912 Kbps\nWidth                            : 608 pixels\nHeight                           : 336 pixels\nDisplay aspect ratio             : 16:9\nFrame rate                       : 23.976 fps\nColor space                      : YUV\nChroma subsampling               : 4:2:0\nBit depth                        : 8 bits\nScan type                        : Progressive\nBits/(Pixel*Frame)               : 0.186\nStream size                      : 612 MiB (87%)\nWriting library                  : XviD 1.2.1 (UTC 2008-12-04)\n\nAudio\nID                               : 1\nFormat                           : MPEG Audio\nFormat version                   : Version 1\nFormat profile                   : Layer 3\nMode                             : Joint stereo\nMode extension                   : MS Stereo\nCodec ID                         : 55\nCodec ID/Hint                    : MP3\nDuration                         : 1h 33mn\nBit rate mode                    : Constant\nBit rate                         : 128 Kbps\nChannel(s)                       : 2 channels\nSampling rate                    : 48.0 KHz\nStream size                      : 85.8 MiB (12%)\nAlignment                        : Aligned on interleaves\nInterleave, duration             : 42 ms (1.00 video frame)\nInterleave, preload duration     : 504 ms\n &lt;a href=&quot;\nhttp://www.imdb.com/title/tt0892700/&quot; rel=&quot;nofollow&quot; target=&quot;_NEW&quot;&gt;\nhttp://www.imdb.com/title/tt0892700/&lt;/a&gt;\n\nJames Patrick Stuart\t ... \tPrivate / ... (32 episodes, 2007-2010)\nTom McGrath\t... \tSkipper (31 episodes, 2008-2010)\nDanny Jacobs\t... \tKing Julien / ... (30 episodes, 2008-2010)\nAndy Richter\t... \tMort (30 episodes, 2008-2010)\nJeff Bennett\t... \tKowalski / ... (29 episodes, 2008-2010)\nKevin Michael Richardson\t... \tMaurice / ... (29 episodes, 2008-2010)\nJohn Di Maggio\t... \tRico / ... (27 episodes, 2008-2010)\nNicole Sullivan\t... \tMarlene (27 episodes, 2009-2010)\nMary Scheer\t... \tAlice / ... (16 episodes, 2009-2010)\n\n\nGenre:\nAnimation | Comedy | Family \n\nPlot:\nThe daily adventures of penguins living in New York's Central Park Zoo.\n\n\n[img]http://leetleech.org/images/33656747413379954056.png[/img]\n[img]http://leetleech.org/images/25587965245209532088.png[/img]\n[img]http://leetleech.org/images/19828756286495946056.png[/img]\n[img]http://leetleech.org/images/10573746374078189472.png[/img]\n[img]http://leetleech.org/images/94036489832844131677.png[/img]\n[img]http://leetleech.org/images/93714431458764572868.png[/img]","torrent":{"xt":"urn:btih:1eb9ed4b133168e63f3eddfedf1be432a6b12f37","amp;dn":"The+Penguins+of+Madagascar+New+to+the+Zoo+%282009%29+DVDRip+XviD-SKI","amp;tr":["udp%3A%2F%2Ftracker.openbittorrent.com%3A80","udp%3A%2F%2Fopen.demonii.com%3A1337","udp%3A%2F%2Ftracker.coppersurfer.tk%3A6969","udp%3A%2F%2Fexodus.desync.com%3A6969"],"infoHash":"1eb9ed4b133168e63f3eddfedf1be432a6b12f37","infoHashBuffer":{"type":"Buffer","data":[30,185,237,75,19,49,104,230,63,62,221,254,223,27,228,50,166,177,47,55]},"announce":[],"urlList":[]}}